HIERARCHY
ROOT Hips
{
	OFFSET 0.000000 0.000000 0.000000
	CHANNELS 6 Xposition Yposition Zposition Zrotation Yrotation Xrotation 
	JOINT LHipJoint
	{
		OFFSET 0.000000 0.000000 0.000000
		CHANNELS 3 Zrotation Yrotation Xrotation
		JOINT LeftUpLeg
		{
			OFFSET 1.363060 -1.794630 0.839290
			CHANNELS 3 Zrotation Yrotation Xrotation
			JOINT LeftLeg
			{
				OFFSET 2.448110 -6.726130 0.000000
				CHANNELS 3 Zrotation Yrotation Xrotation
				JOINT LeftFoot
				{
					OFFSET 2.562200 -7.039590 0.000000
					CHANNELS 3 Zrotation Yrotation Xrotation
					JOINT LeftToeBase
					{
						OFFSET 0.157640 -0.433110 2.322550
						CHANNELS 3 Zrotation Yrotation Xrotation
						End Site
						{
							OFFSET 0.000000 0.000000 0.000000
						}
					}
				}
			}
		}
	}
	JOINT RHipJoint
	{
		OFFSET 0.000000 0.000000 0.000000
		CHANNELS 3 Zrotation Yrotation Xrotation
		JOINT RightUpLeg
		{
			OFFSET -1.305520 -1.794630 0.839290
			CHANNELS 3 Zrotation Yrotation Xrotation
			JOINT RightLeg
			{
				OFFSET -2.542530 -6.985550 0.000000
				CHANNELS 3 Zrotation Yrotation Xrotation
				JOINT RightFoot
				{
					OFFSET -2.568260 -7.056230 0.000000
					CHANNELS 3 Zrotation Yrotation Xrotation
					JOINT RightToeBase
					{
						OFFSET -0.164730 -0.452590 2.363150
						CHANNELS 3 Zrotation Yrotation Xrotation
						End Site
						{
							OFFSET 0.000000 0.000000 0.000000
						}
					}
				}
			}
		}
	}
	JOINT LowerBack
	{
		OFFSET 0.000000 0.000000 0.000000
		CHANNELS 3 Zrotation Yrotation Xrotation
		JOINT Spine
		{
			OFFSET 0.028270 2.035590 -0.193380
			CHANNELS 3 Zrotation Yrotation Xrotation
			JOINT Spine1
			{
				OFFSET 0.056720 2.048850 -0.042750
				CHANNELS 3 Zrotation Yrotation Xrotation
				JOINT Neck
				{
					OFFSET 0.000000 0.000000 0.000000
					CHANNELS 3 Zrotation Yrotation Xrotation
					JOINT Neck1
					{
						OFFSET -0.054170 1.746240 0.172020
						CHANNELS 3 Zrotation Yrotation Xrotation
						JOINT Head
						{
							OFFSET 0.104070 1.761360 -0.123970
							CHANNELS 3 Zrotation Yrotation Xrotation
							End Site
							{
								OFFSET 0.000000 0.000000 0.000000
							}
						}
					}
				}
				JOINT LeftShoulder
				{
					OFFSET 0.000000 0.000000 0.000000
					CHANNELS 3 Zrotation Yrotation Xrotation
					JOINT LeftArm
					{
						OFFSET 3.362410 1.200890 -0.311210
						CHANNELS 3 Zrotation Yrotation Xrotation
						JOINT LeftForeArm
						{
							OFFSET 4.983000 -0.000000 -0.000000
							CHANNELS 3 Zrotation Yrotation Xrotation
							JOINT LeftHand
							{
								OFFSET 3.483560 -0.000000 -0.000000
								CHANNELS 3 Zrotation Yrotation Xrotation
								JOINT LeftFingerBase
								{
									OFFSET 0.000000 0.000000 0.000000
									CHANNELS 3 Zrotation Yrotation Xrotation
									JOINT LeftHandIndex1
									{
										OFFSET 0.715260 -0.000000 -0.000000
										CHANNELS 3 Zrotation Yrotation Xrotation
										End Site
										{
											OFFSET 0.000000 0.000000 0.000000
										}
									}
								}
								JOINT LThumb
								{
									OFFSET 0.000000 0.000000 0.000000
									CHANNELS 3 Zrotation Yrotation Xrotation
									End Site
									{
										OFFSET 0.000000 0.000000 0.000000
									}
								}
							}
						}
					}
				}
				JOINT RightShoulder
				{
					OFFSET 0.000000 0.000000 0.000000
					CHANNELS 3 Zrotation Yrotation Xrotation
					JOINT RightArm
					{
						OFFSET -3.136600 1.374050 -0.404650
						CHANNELS 3 Zrotation Yrotation Xrotation
						JOINT RightForeArm
						{
							OFFSET -5.241900 -0.000000 -0.000000
							CHANNELS 3 Zrotation Yrotation Xrotation
							JOINT RightHand
							{
								OFFSET -3.444170 -0.000000 -0.000000
								CHANNELS 3 Zrotation Yrotation Xrotation
								JOINT RightFingerBase
								{
									OFFSET 0.000000 0.000000 0.000000
									CHANNELS 3 Zrotation Yrotation Xrotation
									JOINT RightHandIndex1
									{
										OFFSET -0.622530 -0.000000 -0.000000
										CHANNELS 3 Zrotation Yrotation Xrotation
										End Site
										{
											OFFSET 0.000000 0.000000 0.000000
										}
									}
								}
								JOINT RThumb
								{
									OFFSET 0.000000 0.000000 0.000000
									CHANNELS 3 Zrotation Yrotation Xrotation
									End Site
									{
										OFFSET 0.000000 0.000000 0.000000
									}
								}
							}
						}
					}
				}
			}
		}
	}
}
MOTION
Frames: 7
Frame Time: 0.008333
-12.370964 53.683993 -11.731593 150.053523 48.895494 -104.926701 70.527249 -58.912568 -56.039475 -39.291470 2.517291 -43.042518 -176.166103 77.264840 130.212307 -14.628487 42.556197 -153.364594 0.569300 4.832100 13.430400 12.569000 32.320328 3.156865 114.727817 -12.753676 -160.869521 98.953908 85.188997 140.352046 -106.183820 -32.758954 -45.234365 -1.085800 -6.622700 18.602300 124.994268 -59.846331 -75.000044 28.825575 -30.521353 -113.101832 -7.499022 55.696350 -119.443802 -174.623562 -19.246500 156.900263 -104.044982 68.501094 -153.344167 -3.385700 1.240000 7.510700 -66.053036 77.492918 135.811212 -25.688788 8.421919 -110.675450 155.157232 71.657845 -91.011417 -110.254319 -43.853512 -40.440658 -93.187293 -8.663619 -28.608099 -7.125000 0.000000 0.000000 8.497800 -10.632700 -10.020200 -105.703675 43.541480 142.511498 -135.560053 -74.719967 -170.951762 -64.888852 18.997086 -107.784101 -82.197294 44.469146 -13.480622 -104.729050 32.628200 3.398100 7.125000 0.000000 0.000000 14.241300 -45.498200 -0.178800 
-11.408154 54.023751 -11.634660 -154.881744 -22.102440 -120.618492 -132.806916 -48.494012 -70.901448 172.295369 -87.635247 -74.519475 -92.560273 -83.374690 -155.235672 85.084282 19.338048 165.019043 0.739600 5.494100 15.323400 178.072101 -63.681483 -92.178034 158.694788 79.595886 -142.584913 139.518998 83.396244 -141.179736 -145.135303 -74.848033 -136.781257 -1.043900 -6.497700 18.235400 -128.255290 52.316371 -54.746919 -133.673092 12.782574 178.798661 104.732342 -75.296059 64.879023 24.524201 -37.741135 153.171960 -24.248022 39.395743 -22.882629 -3.344500 1.186200 7.520900 58.839194 62.667312 -39.907725 -172.795657 -0.824126 4.819120 -102.348787 -3.861013 -31.613698 0.078070 -52.439299 128.428934 -92.356699 61.164025 -26.963904 -7.125000 0.000000 0.000000 7.471800 -9.679500 -8.689700 -126.831219 -75.297080 92.506338 -18.958366 80.220661 -62.938024 -87.573218 -60.775021 -91.773152 -27.029001 -47.064736 -9.771649 -51.693200 -49.347202 3.649100 7.125000 0.000000 0.000000 13.537400 -45.692800 -0.235800 
-10.305982 54.370036 -11.511616 31.095531 5.160951 138.492849 19.253536 27.299420 -158.024854 -68.379622 -43.783062 -57.573833 81.648182 34.313174 -121.597475 -32.001587 -36.019306 -106.342085 1.087800 6.628600 18.619600 -70.637177 48.043368 136.806150 -4.254666 43.473121 172.395323 85.126296 69.948411 117.408775 178.320863 -43.125126 130.984603 -0.855100 -5.897200 16.486400 -158.105478 32.960278 -52.531330 -165.664265 -14.511187 33.203429 139.189169 50.044397 6.358165 -81.312816 82.012432 -56.171406 -43.711926 -20.130538 -47.171886 -3.352800 1.178100 7.729800 77.043750 -84.163937 107.044631 -102.117716 15.823232 -173.290340 -99.508756 36.004940 149.139001 -113.687119 58.288604 -23.740028 -46.817616 76.740730 -25.928800 -7.125000 0.000000 0.000000 6.419100 -9.492700 -7.432900 -14.218429 -7.730766 -65.066382 -18.001435 -68.455856 -105.602635 23.511611 -64.725412 -46.832662 -0.875370 -75.537048 20.854886 -91.906522 -47.292041 4.029100 7.125000 0.000000 0.000000 12.315600 -45.843300 -0.260300 
-9.065426 54.845566 -11.412071 -58.161038 53.271405 156.872504 -122.428903 19.227121 37.049717 27.729835 -10.506085 -139.380719 119.492422 -52.533676 -159.160416 -81.623702 86.922392 -147.526651 1.597900 7.972800 22.631600 -22.385626 14.555815 16.047672 152.663993 15.640149 13.780922 129.069604 50.448856 -153.153572 -86.984176 46.731184 171.255402 -0.686700 -5.298000 14.760600 178.878799 -22.135852 137.976604 78.696840 44.178637 -29.550722 -149.885437 -65.967436 102.218371 72.356480 38.431867 -171.254530 11.544792 60.087536 -152.085662 -3.440200 1.159000 8.057200 59.316804 -48.199791 46.392266 -160.014143 36.437331 -132.182845 72.574230 12.921746 153.933907 141.585947 3.208597 171.056949 75.746457 84.967989 -24.145400 -7.125000 0.000000 0.000000 5.575400 -8.104400 -6.333800 124.430513 -28.908308 -54.661628 126.204198 -42.047199 -143.903750 -43.783714 36.017149 26.156611 159.752264 -33.577776 169.169708 -74.612088 -89.372600 4.408900 7.125000 0.000000 0.000000 10.377400 -45.439300 -0.113700 
-8.004050 55.170310 -11.362462 83.643125 -34.994723 -76.486666 -37.001610 -88.069464 -136.229836 76.742737 -4.221104 139.576141 -6.989878 -61.444519 -16.043249 -123.158403 38.900236 -109.639379 2.225800 9.321400 26.806100 103.340349 32.329300 -42.160624 -40.742280 -45.681604 -28.362203 -161.057077 -29.678401 170.222238 -75.448900 -18.989443 -166.680322 -0.646500 -5.143700 14.318800 64.769300 -19.358877 -174.994832 -116.253400 89.903632 110.864296 50.618323 81.086172 141.355247 -102.450953 -25.458913 126.260765 -38.958434 -72.506644 160.893136 -3.497300 1.160800 8.460400 28.234787 0.701419 -157.088069 115.251206 -36.398318 -83.836826 157.280051 19.412072 168.513263 131.768281 42.206743 -177.307629 81.015242 45.401813 -22.107100 -7.125000 0.000000 0.000000 5.086900 -5.899000 -5.603900 -67.662210 13.928387 -117.742703 -137.417627 86.384396 -171.000085 -34.954614 -9.495420 -99.056332 -10.397676 -11.086329 -17.256851 -30.080989 -20.268860 4.805099 7.125000 0.000000 0.000000 8.562600 -45.233800 -0.049800 
-6.803312 55.521491 -11.230606 -107.398809 -9.565300 85.792141 -47.315815 -17.289518 51.856916 152.093902 38.402684 -161.948947 -164.305032 78.214543 -173.260580 -27.636923 -7.174303 -175.313821 2.799700 10.363400 30.161900 -111.668604 -61.036983 127.824060 -118.909253 -30.791491 157.814060 -83.905744 -48.577684 133.397440 -9.150628 -55.970394 93.551346 -0.525800 -4.647100 12.904600 11.813800 -78.371881 -57.632242 -103.606480 31.695443 -26.825558 -123.397629 52.488814 -155.831532 62.104527 42.876690 -140.781187 175.739597 -60.571643 24.030105 -3.615300 1.163400 8.754800 161.759407 80.700201 -152.938068 166.818629 13.688789 -23.940061 -8.284300 -86.256926 95.160087 -49.752932 84.389678 -57.790328 168.574997 65.101975 160.124200 -7.125000 0.000000 0.000000 4.934600 -2.935700 -5.199700 -72.641070 77.384455 -164.159976 48.493353 9.565542 -4.667482 -14.118701 64.682838 83.433644 -80.447805 -0.972046 -21.484155 -102.909535 -28.013247 5.351100 7.125000 0.000000 0.000000 7.172000 -45.728400 -0.129600 
-5.591477 55.861249 -11.111478 -1.708700 -79.560237 167.346046 -148.085861 -65.495706 117.670985 126.246846 34.852695 52.637757 170.495601 55.897150 91.463859 14.866246 59.749493 34.031803 2.787000 10.342000 30.091500 -78.925760 42.449835 -134.876016 -83.170186 80.819318 161.646712 -86.740969 45.155730 -27.862337 34.154379 32.035820 -49.216524 -0.251600 -3.227600 8.913100 -135.758097 11.115952 89.562951 -167.374364 27.548940 5.461846 -172.316562 -68.356422 78.208606 -44.430862 -68.409627 12.658934 48.712482 -74.165087 119.458142 -3.734000 1.159600 8.968300 -11.734674 35.494146 27.338625 -34.683277 -74.602538 -142.772678 163.647357 -38.348885 -56.747267 116.894575 -9.894779 166.550769 -35.850355 22.979279 -17.628402 -7.125000 0.000000 0.000000 4.515600 -0.075200 -4.535600 121.892177 -69.229889 -96.608513 -60.181740 -18.667682 -13.567885 -149.808545 -49.271918 -94.561582 6.408559 73.561981 -13.352220 16.636241 47.549030 5.842300 7.125000 0.000000 0.000000 6.022800 -46.206300 -0.180000 
